<svg width="768" height="768" viewBox="0 0 768 768" fill="none" xmlns="http://www.w3.org/2000/svg">
<path d="M96.7174 0C87.5409 0 89.8536 129.612 42.3529 129.612C38.1176 129.612 36.2824 127.534 34.5882 127.534C29.6471 127.534 28.3636 132.728 24.7059 132.728C21.8182 132.728 19.7005 128.521 16.9412 128.518C14.1818 128.516 12.4327 129.849 9.17647 133.767C6.23983 137.301 1.64706 139.307 0 140H192C185.647 140 188.053 131.797 183.818 131.797C180.289 131.797 180.706 126.496 175.765 126.496C170.824 126.496 170.824 133.767 164.471 133.767C158.118 133.767 158.182 120.312 152.727 120.312C147.273 120.312 148.364 131 136.028 131C108 131 105.894 0 96.7174 0Z" transform="translate(96 72) scale(3)" fill="#8985DB" style="mix-blend-mode:multiply"/>
<path d="M75.7159 0C68.5321 0 70.3425 98.2216 33.1563 98.2216C29.8407 98.2216 28.4039 96.6472 27.0777 96.6472C23.2094 96.6472 20.999 100.583 19.3412 100.583C17.6834 100.583 16.5782 97.0408 13.2625 98.2216C11.0521 99.0089 9.733 98.4014 7.18387 101.371C4.8849 104.048 1.28941 105.569 0 106.094H150.309C145.335 106.094 145.982 104.453 144.346 102.812C142.71 101.172 141.467 95.86 137.599 95.86C133.73 95.86 133.73 101.37 128.757 101.37C123.784 101.37 124.889 91.1367 120.468 91.1367C116.047 91.1367 116.99 99.2738 106.491 99.2738C83.0433 99.2738 82.8998 0 75.7159 0Z" transform="translate(201.325 173.719) scale(3)" fill="#FB9B0C" style="mix-blend-mode:multiply"/>
<path d="M61.8991 0C56.0262 0 57.5063 42.529 27.1059 42.529C24.3953 42.529 23.2207 41.8473 22.1365 41.8473C18.9741 41.8473 17.1671 43.5515 15.8118 43.5515C14.4565 43.5515 13.0909 42.529 10.8424 42.529C9.81818 42.529 7.9569 42.6068 5.87294 43.8924C3.99349 45.0518 1.05412 45.7103 0 45.9375H122.88C118.814 45.9375 121.073 43.8924 118.362 43.8924C116.104 43.8924 115.652 41.5064 112.489 41.5064C109.327 41.5064 109.327 43.8924 105.261 43.8924C101.195 43.8924 102.099 39.4613 98.4847 39.4613C94.8706 39.4613 95.6417 42.9845 87.0581 42.9845C67.8894 42.9845 67.7721 0 61.8991 0Z" transform="translate(96 354.188) scale(3)" fill="#57B365" style="mix-blend-mode:multiply"/>
<path d="M22.4355 40.8008V44H6.66504H3.46582V14.1406H7.44434H22.2305V17.3604H7.44434V26.9785H20.3438V30.1777H7.44434V40.8008H22.4355ZM45.4658 40.8008V44H30.5361H27.3369V14.1406H31.3154V40.8008H45.4658ZM47.2705 32.8438V29.7471H57.2988V32.8438H47.2705ZM91.3213 44H87.3633V32.3311L87.7324 19.8828L77.9502 44H74.9355L65.1738 19.9033L65.543 32.3311V44H61.585V14.1406H64.9893H66.7119L76.4531 38.5449L86.1943 14.1406H91.3213V44ZM114.782 36.1865H102.334L99.5039 44H95.4023L106.805 14.1406H109.43H110.291L121.714 44H117.633L114.782 36.1865ZM113.613 32.9668L108.548 19.0215L103.503 32.9668H113.613ZM146.877 14.1406L135.823 44H132.747H132.296L121.263 14.1406H125.59L134.039 38.75L142.55 14.1406H146.877ZM169.887 40.8008V44H154.116H150.917V14.1406H154.896H169.682V17.3604H154.896V26.9785H167.795V30.1777H154.896V40.8008H169.887ZM193.758 44L178.767 20.9082V44H174.788V14.1406H178.767L193.819 37.2939V14.1406H197.757V44H193.758Z" transform="translate(81 510) scale(3)" fill="#8985DB"/>
</svg>
