<svg width="768" height="768" viewBox="0 0 768 768" fill="none" xmlns="http://www.w3.org/2000/svg">
<path d="M386.152 72C358.623 72 365.561 460.836 223.059 460.836C210.353 460.836 204.847 454.603 199.765 454.603C184.941 454.603 181.091 470.185 170.118 470.185C161.455 470.185 155.102 457.563 146.824 457.555C138.545 457.547 133.298 461.548 123.529 473.302C114.719 483.902 100.941 489.922 96 492H672C652.941 492 660.16 467.391 647.455 467.391C636.866 467.391 638.118 451.487 623.294 451.487C608.471 451.487 608.471 473.302 589.412 473.302C570.353 473.302 570.545 432.938 554.182 432.938C537.818 432.938 541.091 465.001 504.085 465.001C420 465.001 413.682 72 386.152 72Z" fill="#8985DB" style="mix-blend-mode:multiply"/>
<path d="M428.473 173.719C406.921 173.719 412.353 468.384 300.794 468.384C290.847 468.384 286.537 463.66 282.558 463.66C270.953 463.66 264.322 475.469 259.349 475.469C254.375 475.469 251.06 464.841 241.113 468.384C234.482 470.745 230.524 468.923 222.877 477.83C215.98 485.863 205.193 490.426 201.325 492H652.251C637.331 492 639.272 487.078 634.363 482.156C629.454 477.234 625.726 461.299 614.121 461.299C602.517 461.299 602.517 477.83 587.596 477.83C572.676 477.83 575.991 447.129 562.729 447.129C549.466 447.129 552.296 471.54 520.798 471.54C450.455 471.54 450.025 173.719 428.473 173.719Z" fill="#FB9B0C" style="mix-blend-mode:multiply"/>
<path d="M281.697 354.188C264.079 354.188 268.519 481.774 177.318 481.774C169.186 481.774 165.662 479.729 162.409 479.729C152.922 479.729 147.501 484.842 143.435 484.842C139.369 484.842 135.273 481.774 128.527 481.774C125.455 481.774 119.871 482.008 113.619 485.865C107.98 489.343 99.1624 491.318 96 492H464.64C452.442 492 459.219 485.865 451.087 485.865C444.311 485.865 442.955 478.707 433.468 478.707C423.981 478.707 423.981 485.865 411.784 485.865C399.586 485.865 402.296 472.571 391.454 472.571C380.612 472.571 382.925 483.141 357.174 483.141C299.668 483.141 299.316 354.187 281.697 354.188Z" fill="#57B365" style="mix-blend-mode:multiply"/>
<path d="M148.307 632.402V642H100.995H91.3975V552.422H103.333H147.691V562.081H103.333V590.936H142.031V600.533H103.333V632.402H148.307ZM163.872 642V552.422H175.808V642H163.872ZM189.22 608.531V599.241H219.305V608.531H189.22ZM321.372 642H309.498V606.993L310.605 569.648L281.259 642H272.215L242.93 569.71L244.037 606.993V642H232.163V552.422H242.376H247.544L276.768 625.635L305.991 552.422H321.372V642ZM391.755 618.56H354.41L345.92 642H333.615L367.822 552.422H375.697H378.281L412.55 642H400.307L391.755 618.56ZM388.248 608.9L373.052 567.064L357.917 608.9H388.248ZM488.039 552.422L454.878 642H445.649H444.296L411.196 552.422H424.178L449.525 626.25L475.058 552.422H488.039ZM557.068 632.402V642H509.757H500.159V552.422H512.095H556.453V562.081H512.095V590.936H550.793V600.533H512.095V632.402H557.068ZM628.682 642L583.708 572.725V642H571.772V552.422H583.708L628.866 621.882V552.422H640.679V642H628.682Z" fill="#8985DB"/>
</svg>
