<svg width="266" height="80" viewBox="0 0 266 80" version="1.1" xmlns="http://www.w3.org/2000/svg" xmlns:xlink="http://www.w3.org/1999/xlink">
<title>Group</title>
<desc>Created using Figma</desc>
<g id="Canvas" transform="translate(102 153)">
<g id="Group">
<g id="Group">
<g id="Shape">
<use xlink:href="#path0_fill" transform="translate(-102 -153)" fill="#8985DB"/>
</g>
</g>
<g id="lucidata">
<use xlink:href="#path1_fill" transform="translate(-29 -129)" fill="#8985DB"/>
<use xlink:href="#path2_fill" transform="translate(-29 -129)" fill="#8985DB"/>
<use xlink:href="#path3_fill" transform="translate(-29 -129)" fill="#8985DB"/>
<use xlink:href="#path4_fill" transform="translate(-29 -129)" fill="#8985DB"/>
<use xlink:href="#path5_fill" transform="translate(-29 -129)" fill="#8985DB"/>
<use xlink:href="#path6_fill" transform="translate(-29 -129)" fill="#8985DB"/>
<use xlink:href="#path7_fill" transform="translate(-29 -129)" fill="#8985DB"/>
<use xlink:href="#path8_fill" transform="translate(-29 -129)" fill="#8985DB"/>
</g>
</g>
</g>
<defs>
<path id="path0_fill" d="M 50.721 61.1406C 49.1622 62.0853 47.1408 61.5784 46.2 60.0068C 45.265 58.4317 45.7667 56.3892 47.322 55.4386L 66 44.1014L 66 31.8972L 50.721 41.1671C 49.1536 42.106 47.1297 41.5835 46.2 40C 45.265 38.4249 45.7667 36.3824 47.322 35.4318L 66 24.0946L 66 21.6604C 65.9949 17.8741 63.8746 14.4152 60.522 12.724L 37.422 1.05336C 34.6378 -0.351118 31.3622 -0.351118 28.578 1.05336L 5.478 12.724C 2.12542 14.4152 0.00512453 17.8741 0 21.6604L 0 58.3396C 0.00512453 62.1259 2.12542 65.5848 5.478 67.276L 28.578 78.9466C 31.3622 80.3511 34.6378 80.3511 37.422 78.9466L 60.522 67.276C 63.8746 65.5848 65.9949 62.1259 66 58.3396L 66 51.9041L 50.721 61.1406Z"/>
<path id="path1_fill" d="M 0 0.207099L 0 34.2687L 5.94136 34.2687L 5.94136 0.207099L 0 0.207099Z"/>
<path id="path2_fill" d="M 13.2841 10.2453L 13.2841 22.8661C 13.2841 30.3216 17.5068 34.6585 23.3009 34.6585C 26.689 34.6585 28.9968 33.489 31.501 31.0525L 31.8938 34.3174L 37.2459 34.3174L 37.2459 10.2453L 31.3046 10.2453L 31.3046 22.525C 31.3046 26.1797 28.8004 29.2496 25.1177 29.2496C 21.2877 29.2496 19.2745 26.472 19.2745 22.8174L 19.2745 10.2453L 13.2841 10.2453Z"/>
<path id="path3_fill" d="M 61.2389 27.3004C 59.7658 28.7623 57.8508 29.2983 55.9358 29.2983C 52.2041 29.2983 49.0615 26.8619 49.0615 22.2813C 49.0615 18.0906 52.0077 15.1669 56.034 15.1669C 57.7035 15.1669 59.4712 15.8004 60.8952 17.0673L 64.676 13.1203C 62.0245 10.5376 59.373 9.56306 55.9358 9.56306C 48.9142 9.56306 43.0711 13.7538 43.0711 22.2813C 43.0711 30.8089 48.9142 34.9996 55.9358 34.9996C 59.5203 34.9996 62.4664 33.9276 65.2653 31.1987L 61.2389 27.3004Z"/>
<path id="path4_fill" d="M 75.8498 10.1478L 75.8498 34.2687L 69.8594 34.2687L 69.8594 10.1478L 75.8498 10.1478ZM 69.3193 3.47194C 69.3193 8.10119 76.39 8.10119 76.39 3.47194C 76.39 -1.15731 69.3193 -1.15731 69.3193 3.47194Z"/>
<path id="path5_fill" d="M 94.9713 15.2156C 98.7522 15.2156 101.993 18.0419 101.993 22.2326C 101.993 26.5695 98.7522 29.2983 94.9713 29.2983C 91.1413 29.2983 88.097 26.4233 88.097 22.2326C 88.097 17.8957 91.1413 15.2156 94.9713 15.2156ZM 102.386 0.207099L 102.386 13.5101C 100.962 11.0249 96.9845 9.66052 94.4312 9.66052C 87.3605 9.66052 82.1065 13.9487 82.1065 22.2326C 82.1065 30.1267 87.4587 34.8047 94.5785 34.8047C 97.5246 34.8047 100.52 33.8301 102.386 30.9551L 102.779 34.2687L 108.376 34.2687L 108.376 0.207099L 102.386 0.207099Z"/>
<path id="path6_fill" d="M 134.556 13.5588C 133.181 11.1711 130.087 9.66052 126.847 9.66052C 119.776 9.61179 114.227 13.9487 114.227 22.2326C 114.227 30.6627 119.53 35.0483 126.699 34.9996C 129.4 34.9509 133.181 33.5865 134.556 30.7602L 134.85 34.2687L 140.497 34.2687L 140.497 10.2453L 134.752 10.2453L 134.556 13.5588ZM 127.387 14.972C 136.814 14.972 136.814 29.542 127.387 29.542C 123.41 29.542 120.218 26.8131 120.218 22.2326C 120.218 17.6521 123.41 14.972 127.387 14.972Z"/>
<path id="path7_fill" d="M 148.935 4.10542L 148.935 10.294L 144.418 10.294L 144.418 15.4105L 148.935 15.4105L 148.935 25.7898C 148.935 31.7835 152.372 34.756 157.626 34.561C 159.443 34.5123 160.867 34.2199 162.585 33.5377L 160.916 28.4699C 160.032 28.9085 158.952 29.2008 158.019 29.2008C 156.153 29.2008 154.876 28.0801 154.876 25.7898L 154.876 15.4105L 161.603 15.4105L 161.603 10.294L 154.925 10.294L 154.925 3.47194L 148.935 4.10542Z"/>
<path id="path8_fill" d="M 187.059 13.5588C 185.684 11.1711 182.59 9.66052 179.35 9.66052C 172.279 9.61179 166.73 13.9487 166.73 22.2326C 166.73 30.6627 172.033 35.0483 179.202 34.9996C 181.903 34.9509 185.684 33.5865 187.059 30.7602L 187.353 34.2687L 193 34.2687L 193 10.2453L 187.255 10.2453L 187.059 13.5588ZM 179.89 14.972C 189.317 14.972 189.317 29.542 179.89 29.542C 175.912 29.542 172.721 26.8131 172.721 22.2326C 172.721 17.6521 175.912 14.972 179.89 14.972Z"/>
</defs>
</svg>
