<svg width="768" height="768" viewBox="0 0 768 768" fill="none" xmlns="http://www.w3.org/2000/svg">
<path d="M386.152 72C358.623 72 365.561 460.836 223.059 460.836C210.353 460.836 204.847 454.603 199.765 454.603C184.941 454.603 181.091 470.185 170.118 470.185C161.455 470.185 155.102 457.563 146.824 457.555C138.545 457.547 133.298 461.548 123.529 473.302C114.719 483.902 100.941 489.922 96 492H672C652.941 492 660.16 467.391 647.455 467.391C636.866 467.391 638.118 451.487 623.294 451.487C608.471 451.487 608.471 473.302 589.412 473.302C570.353 473.302 570.545 432.938 554.182 432.938C537.818 432.938 541.091 465.001 504.085 465.001C420 465.001 413.682 72 386.152 72Z" fill="#8985DB" style="mix-blend-mode:multiply"/>
<path d="M428.473 173.719C406.921 173.719 412.353 468.384 300.794 468.384C290.847 468.384 286.537 463.66 282.558 463.66C270.953 463.66 264.322 475.469 259.349 475.469C254.375 475.469 251.06 464.841 241.113 468.384C234.482 470.745 230.524 468.923 222.877 477.83C215.98 485.863 205.193 490.426 201.325 492H652.251C637.331 492 639.272 487.078 634.363 482.156C629.454 477.234 625.726 461.299 614.121 461.299C602.517 461.299 602.517 477.83 587.596 477.83C572.676 477.83 575.991 447.129 562.729 447.129C549.466 447.129 552.296 471.54 520.798 471.54C450.455 471.54 450.025 173.719 428.473 173.719Z" fill="#FB9B0C" style="mix-blend-mode:multiply"/>
<path d="M281.697 354.188C264.079 354.188 268.519 481.774 177.318 481.774C169.186 481.774 165.662 479.729 162.409 479.729C152.922 479.729 147.501 484.842 143.435 484.842C139.369 484.842 135.273 481.774 128.527 481.774C125.455 481.774 119.871 482.008 113.619 485.865C107.98 489.343 99.1624 491.318 96 492H464.64C452.442 492 459.219 485.865 451.087 485.865C444.311 485.865 442.955 478.707 433.468 478.707C423.981 478.707 423.981 485.865 411.784 485.865C399.586 485.865 402.296 472.571 391.454 472.571C380.612 472.571 382.925 483.141 357.174 483.141C299.668 483.141 299.316 354.187 281.697 354.188Z" fill="#57B365" style="mix-blend-mode:multiply"/>
<path d="M142.031 585.595H103.21V617.341H148.307V627H91.3975V537.422H147.691V547.143H103.21V575.936H142.031V585.595Z" fill="#8985DB"/>
<path d="M175.685 627H163.872V528.422H175.685V627Z" fill="#8985DB"/>
<path d="M219.243 593.593H189.22V584.303H219.243V593.593Z" fill="#8985DB"/>
<path d="M247.421 537.422L276.706 610.512L305.991 537.422H321.311V627H309.498V592.116L310.605 554.464L281.197 627H272.153L242.807 554.648L243.976 592.116V627H232.163V537.422H247.421Z" fill="#8985DB"/>
<path d="M392.739 603.621H355.21L346.781 627H334.6L368.807 537.422H379.143L413.411 627H401.291L392.739 603.621ZM358.778 593.9H389.232L373.975 552.003L358.778 593.9Z" fill="#8985DB"/>
<path d="M449.71 611.312L475.304 537.422H488.224L455.001 627H444.542L411.381 537.422H424.239L449.71 611.312Z" fill="#8985DB"/>
<path d="M550.916 585.595H512.095V617.341H557.191V627H500.282V537.422H556.576V547.143H512.095V575.936H550.916V585.595Z" fill="#8985DB"/>
<path d="M640.74 627H628.866L583.77 557.971V627H571.896V537.422H583.77L628.989 606.759V537.422H640.74V627Z" fill="#8985DB"/>
</svg>
